<svg width="146" height="114" viewBox="0 0 146 114" fill="none" xmlns="http://www.w3.org/2000/svg">
<rect width="146" height="114" fill="white"/>
<rect x="31" y="23" width="78" height="43" rx="3" stroke="#28BABA" stroke-width="2"/>
<path d="M27.0403 77.5L30.2403 73.5H109.777L113.377 77.5H27.0403Z" stroke="#28BABA"/>
<path d="M17.0344 85L28.9915 69.5H110.54L123.826 85H17.0344Z" stroke="#28BABA" stroke-width="2"/>
<path fill-rule="evenodd" clip-rule="evenodd" d="M15 89V86C15 85.4477 15.4477 85 16 85C16.5523 85 17 85.4477 17 86V87C17 88.1046 17.8954 89 19 89H121.995C123.099 89 123.995 88.1046 123.995 87V86C123.995 85.4477 124.442 85 124.995 85C125.547 85 125.995 85.4477 125.995 86V88.9974C125.995 88.9988 125.996 89 125.997 89C125.999 89 126 89.0012 126 89.0026V90C126 90.5523 125.552 91 125 91H17C15.8954 91 15 90.1046 15 89Z" fill="#28BABA"/>
<path d="M37.5 48L44 59.5L53.5 42L62 51L74 35L84 45L101.5 27M101.5 27L96 29M101.5 27V32" stroke="#28BABA" stroke-width="2"/>
</svg>
