<svg width="63" height="73" viewBox="0 0 63 73" fill="none" xmlns="http://www.w3.org/2000/svg">
<g id="Frame 1">
<path id="outline-rectangle" d="M56 10H11V66" stroke="#28BABA" stroke-width="2"/>
<path id="page-flap" fill-rule="evenodd" clip-rule="evenodd" d="M40.317 50C39.2124 50 38.317 50.8954 38.317 52V64.2175L38 64.4948L38.317 64.8571V65H38.442L39.317 66L55.317 52L54.317 50.8571V50H40.317ZM52.2798 52L40.317 52V62.4675L52.2798 52Z" fill="#28BABA"/>
<path id="right-outer-line" d="M11 65H40" stroke="#28BABA" stroke-width="2"/>
<line id="bottom-outer-line" x1="55" y1="10" x2="55" y2="52" stroke="#28BABA" stroke-width="2"/>
<path id="in-line5" d="M17 55L34.9998 55.063" stroke="#28BABA" stroke-width="2" stroke-linecap="round"/>
<path id="in-line4" d="M17 45L49 45" stroke="#28BABA" stroke-width="2" stroke-linecap="round"/>
<path id="in-line3" d="M17 36L49 36" stroke="#28BABA" stroke-width="2" stroke-linecap="round"/>
<path id="in-line2" d="M17 27L49 27" stroke="#28BABA" stroke-width="2" stroke-linecap="round"/>
<path id="in-line1" d="M17 18L49 18" stroke="#28BABA" stroke-width="2" stroke-linecap="round"/>
</g>
</svg>
