<svg width="264" height="248" viewBox="0 0 264 248" fill="none" xmlns="http://www.w3.org/2000/svg">
<g id="Section 1">
<path d="M38 48.4359C38 47.3314 38.8954 46.4359 40 46.4359H223C224.105 46.4359 225 47.3314 225 48.4359V200.436C225 201.541 224.105 202.436 223 202.436H40C38.8954 202.436 38 201.541 38 200.436V48.4359Z" fill="#28BABA"/>
<path d="M40 47.4359H223V45.4359H40V47.4359ZM224 48.4359V200.436H226V48.4359H224ZM223 201.436H40V203.436H223V201.436ZM39 200.436V48.4359H37V200.436H39ZM40 201.436C39.4477 201.436 39 200.988 39 200.436H37C37 202.093 38.3431 203.436 40 203.436V201.436ZM224 200.436C224 200.988 223.552 201.436 223 201.436V203.436C224.657 203.436 226 202.093 226 200.436H224ZM223 47.4359C223.552 47.4359 224 47.8837 224 48.4359H226C226 46.7791 224.657 45.4359 223 45.4359V47.4359ZM40 45.4359C38.3431 45.4359 37 46.7791 37 48.4359H39C39 47.8837 39.4477 47.4359 40 47.4359V45.4359Z" fill="white" fill-opacity="0.1"/>
</g>
<path id="Vector" d="M131.512 247.907C166.391 247.907 199.842 234.847 224.505 211.602C249.169 188.356 263.024 156.828 263.024 123.953C263.024 91.0789 249.169 59.5509 224.505 36.3051C199.842 13.0593 166.391 -1.52588e-05 131.512 -1.52588e-05C96.633 -1.52588e-05 63.1823 13.0593 38.519 36.3051C13.8557 59.5509 0 91.0789 0 123.953C0 156.828 13.8557 188.356 38.519 211.602C63.1823 234.847 96.633 247.907 131.512 247.907ZM69.4035 105.264L124.423 56.8927C126.375 55.198 128.892 54.2296 131.512 54.2296C134.132 54.2296 136.701 55.198 138.602 56.8927L193.621 105.264C195.933 107.297 197.268 110.154 197.268 113.156C197.268 119.111 192.131 123.953 185.812 123.953H156.171V170.436C156.171 179.006 148.825 185.93 139.732 185.93H123.293C114.2 185.93 106.854 179.006 106.854 170.436L106.854 123.953L77.212 123.953C70.8933 123.953 65.7561 119.111 65.7561 113.156C65.7561 110.154 67.0918 107.297 69.4035 105.264Z" fill="white"/>
<path id="Section 1_2" d="M49.3438 22.4359C49.2969 22.0401 49.1068 21.7328 48.7734 21.5141C48.4401 21.2953 48.0313 21.1859 47.5469 21.1859C47.1927 21.1859 46.8828 21.2432 46.6172 21.3578C46.3542 21.4724 46.1484 21.63 46 21.8305C45.8542 22.031 45.7813 22.2589 45.7813 22.5141C45.7813 22.7276 45.832 22.9112 45.9336 23.0648C46.0378 23.2159 46.1706 23.3422 46.332 23.4438C46.4935 23.5427 46.6628 23.6247 46.8398 23.6898C47.0169 23.7523 47.1797 23.8031 47.3281 23.8422L48.1406 24.0609C48.349 24.1156 48.5807 24.1912 48.8359 24.2875C49.0938 24.3839 49.3398 24.5154 49.5742 24.682C49.8112 24.8461 50.0065 25.057 50.1602 25.3148C50.3138 25.5727 50.3906 25.8891 50.3906 26.2641C50.3906 26.6964 50.2773 27.087 50.0508 27.4359C49.8268 27.7849 49.4987 28.0622 49.0664 28.268C48.6367 28.4737 48.1146 28.5766 47.5 28.5766C46.9271 28.5766 46.431 28.4841 46.0117 28.2992C45.5951 28.1143 45.2669 27.8565 45.0273 27.5258C44.7904 27.1951 44.6563 26.8109 44.625 26.3734H45.625C45.651 26.6755 45.7526 26.9255 45.9297 27.1234C46.1094 27.3188 46.3359 27.4646 46.6094 27.5609C46.8854 27.6547 47.1823 27.7016 47.5 27.7016C47.8698 27.7016 48.2018 27.6417 48.4961 27.5219C48.7904 27.3995 49.0234 27.2302 49.1953 27.0141C49.3672 26.7953 49.4531 26.5401 49.4531 26.2484C49.4531 25.9828 49.3789 25.7667 49.2305 25.6C49.082 25.4333 48.8867 25.2979 48.6445 25.1938C48.4023 25.0896 48.1406 24.9984 47.8594 24.9203L46.875 24.6391C46.25 24.4594 45.7552 24.2029 45.3906 23.8695C45.026 23.5362 44.8438 23.1 44.8438 22.5609C44.8438 22.113 44.9648 21.7224 45.207 21.3891C45.4518 21.0531 45.7799 20.7927 46.1914 20.6078C46.6055 20.4203 47.0677 20.3266 47.5781 20.3266C48.0938 20.3266 48.5521 20.419 48.9531 20.6039C49.3542 20.7862 49.6719 21.0362 49.9062 21.3539C50.1432 21.6716 50.2682 22.0323 50.2813 22.4359H49.3438ZM54.374 28.5609C53.7959 28.5609 53.2972 28.4333 52.8779 28.1781C52.4613 27.9203 52.1396 27.5609 51.9131 27.1C51.6891 26.6365 51.5771 26.0974 51.5771 25.4828C51.5771 24.8682 51.6891 24.3266 51.9131 23.8578C52.1396 23.3865 52.4548 23.0193 52.8584 22.7563C53.2646 22.4906 53.7386 22.3578 54.2803 22.3578C54.5928 22.3578 54.9014 22.4099 55.2061 22.5141C55.5107 22.6182 55.7881 22.7875 56.0381 23.0219C56.2881 23.2537 56.4873 23.5609 56.6357 23.9438C56.7842 24.3266 56.8584 24.7979 56.8584 25.3578V25.7484H52.2334V24.9516H55.9209C55.9209 24.613 55.8532 24.3109 55.7178 24.0453C55.585 23.7797 55.3949 23.5701 55.1475 23.4164C54.9027 23.2628 54.6136 23.1859 54.2803 23.1859C53.9131 23.1859 53.5954 23.2771 53.3271 23.4594C53.0615 23.6391 52.8571 23.8734 52.7139 24.1625C52.5706 24.4516 52.499 24.7615 52.499 25.0922V25.6234C52.499 26.0766 52.5771 26.4607 52.7334 26.7758C52.8923 27.0883 53.1123 27.3266 53.3936 27.4906C53.6748 27.6521 54.0016 27.7328 54.374 27.7328C54.6162 27.7328 54.835 27.699 55.0303 27.6313C55.2282 27.5609 55.3988 27.4568 55.542 27.3188C55.6852 27.1781 55.7959 27.0037 55.874 26.7953L56.7646 27.0453C56.6709 27.3474 56.5133 27.613 56.292 27.8422C56.0706 28.0688 55.7972 28.2458 55.4717 28.3734C55.1462 28.4984 54.7803 28.5609 54.374 28.5609ZM60.6982 28.5609C60.1357 28.5609 59.6514 28.4281 59.2451 28.1625C58.8389 27.8969 58.5264 27.531 58.3076 27.0648C58.0889 26.5987 57.9795 26.0662 57.9795 25.4672C57.9795 24.8578 58.0915 24.3201 58.3154 23.8539C58.542 23.3852 58.8571 23.0193 59.2607 22.7563C59.667 22.4906 60.141 22.3578 60.6826 22.3578C61.1045 22.3578 61.4847 22.4359 61.8232 22.5922C62.1618 22.7484 62.4391 22.9672 62.6553 23.2484C62.8714 23.5297 63.0055 23.8578 63.0576 24.2328H62.1357C62.0654 23.9594 61.9092 23.7172 61.667 23.5063C61.4274 23.2927 61.1045 23.1859 60.6982 23.1859C60.3389 23.1859 60.0238 23.2797 59.7529 23.4672C59.4847 23.6521 59.2751 23.9138 59.124 24.2523C58.9756 24.5883 58.9014 24.9828 58.9014 25.4359C58.9014 25.8995 58.9743 26.3031 59.1201 26.6469C59.2686 26.9906 59.4769 27.2576 59.7451 27.4477C60.016 27.6378 60.3337 27.7328 60.6982 27.7328C60.9378 27.7328 61.1553 27.6912 61.3506 27.6078C61.5459 27.5245 61.7113 27.4047 61.8467 27.2484C61.9821 27.0922 62.0785 26.9047 62.1357 26.6859H63.0576C63.0055 27.0401 62.8766 27.3591 62.6709 27.643C62.4678 27.9242 62.1982 28.1482 61.8623 28.3148C61.529 28.4789 61.141 28.5609 60.6982 28.5609ZM67.0146 22.4359V23.2172H63.9053V22.4359H67.0146ZM64.8115 20.9984H65.7334V26.7172C65.7334 26.9776 65.7712 27.1729 65.8467 27.3031C65.9248 27.4307 66.0238 27.5167 66.1436 27.5609C66.266 27.6026 66.3949 27.6234 66.5303 27.6234C66.6318 27.6234 66.7152 27.6182 66.7803 27.6078C66.8454 27.5948 66.8975 27.5844 66.9365 27.5766L67.124 28.4047C67.0615 28.4281 66.9743 28.4516 66.8623 28.475C66.7503 28.501 66.6084 28.5141 66.4365 28.5141C66.1761 28.5141 65.9209 28.4581 65.6709 28.3461C65.4235 28.2341 65.2178 28.0635 65.0537 27.8344C64.8923 27.6052 64.8115 27.3162 64.8115 26.9672V20.9984ZM68.4014 28.4359V22.4359H69.3232V28.4359H68.4014ZM68.8701 21.4359C68.6904 21.4359 68.5355 21.3747 68.4053 21.2523C68.2777 21.13 68.2139 20.9828 68.2139 20.8109C68.2139 20.6391 68.2777 20.4919 68.4053 20.3695C68.5355 20.2471 68.6904 20.1859 68.8701 20.1859C69.0498 20.1859 69.2035 20.2471 69.3311 20.3695C69.4613 20.4919 69.5264 20.6391 69.5264 20.8109C69.5264 20.9828 69.4613 21.13 69.3311 21.2523C69.2035 21.3747 69.0498 21.4359 68.8701 21.4359ZM73.4492 28.5609C72.9076 28.5609 72.4323 28.432 72.0234 28.1742C71.6172 27.9164 71.2995 27.5557 71.0703 27.0922C70.8438 26.6287 70.7305 26.087 70.7305 25.4672C70.7305 24.8422 70.8438 24.2966 71.0703 23.8305C71.2995 23.3643 71.6172 23.0023 72.0234 22.7445C72.4323 22.4867 72.9076 22.3578 73.4492 22.3578C73.9909 22.3578 74.4648 22.4867 74.8711 22.7445C75.2799 23.0023 75.5977 23.3643 75.8242 23.8305C76.0534 24.2966 76.168 24.8422 76.168 25.4672C76.168 26.087 76.0534 26.6287 75.8242 27.0922C75.5977 27.5557 75.2799 27.9164 74.8711 28.1742C74.4648 28.432 73.9909 28.5609 73.4492 28.5609ZM73.4492 27.7328C73.8607 27.7328 74.1992 27.6273 74.4648 27.4164C74.7305 27.2055 74.9271 26.9281 75.0547 26.5844C75.1823 26.2406 75.2461 25.8682 75.2461 25.4672C75.2461 25.0662 75.1823 24.6925 75.0547 24.3461C74.9271 23.9997 74.7305 23.7198 74.4648 23.5063C74.1992 23.2927 73.8607 23.1859 73.4492 23.1859C73.0378 23.1859 72.6992 23.2927 72.4336 23.5063C72.168 23.7198 71.9714 23.9997 71.8438 24.3461C71.7161 24.6925 71.6523 25.0662 71.6523 25.4672C71.6523 25.8682 71.7161 26.2406 71.8438 26.5844C71.9714 26.9281 72.168 27.2055 72.4336 27.4164C72.6992 27.6273 73.0378 27.7328 73.4492 27.7328ZM78.4971 24.8266V28.4359H77.5752V22.4359H78.4658V23.3734H78.5439C78.6846 23.0688 78.8981 22.824 79.1846 22.6391C79.471 22.4516 79.8408 22.3578 80.2939 22.3578C80.7002 22.3578 81.0557 22.4412 81.3604 22.6078C81.665 22.7719 81.902 23.0219 82.0713 23.3578C82.2406 23.6912 82.3252 24.113 82.3252 24.6234V28.4359H81.4033V24.6859C81.4033 24.2146 81.2809 23.8474 81.0361 23.5844C80.7913 23.3188 80.4554 23.1859 80.0283 23.1859C79.734 23.1859 79.471 23.2497 79.2393 23.3773C79.0101 23.505 78.8291 23.6912 78.6963 23.9359C78.5635 24.1807 78.4971 24.4776 78.4971 24.8266ZM89.9004 20.4359V28.4359H88.9316V21.4516H88.8848L86.9316 22.7484V21.7641L88.9316 20.4359H89.9004Z" fill="white"/>
</svg>
